<svg id="Layer_1" data-name="Layer 1" xmlns="http://www.w3.org/2000/svg" xmlns:xlink="http://www.w3.org/1999/xlink" viewBox="0 0 16.42 16.43"><defs><style>.cls-1{fill:none;}.cls-2{clip-path:url(#clip-path);}.cls-3{fill:#005d99;}.cls-4{fill:#fff;}</style><clipPath id="clip-path" transform="translate(-305 -289.57)"><rect class="cls-1" x="305" y="289.58" width="16.42" height="16.42"/></clipPath></defs><title>facebook_301</title><g class="cls-2"><path class="cls-3" d="M305,297.79a8.21,8.21,0,1,1,8.21,8.21,8.22,8.22,0,0,1-8.21-8.21" transform="translate(-305 -289.57)"/><path class="cls-4" d="M315,297.73h-1.16v4.13h-1.72v-4.13h-.82v-1.46h.82v-.95a1.61,1.61,0,0,1,1.73-1.73h1.28V295h-.93a.35.35,0,0,0-.36.4v.86h1.31Z" transform="translate(-305 -289.57)"/><path class="cls-4" d="M315,297.73h-1.16v4.13h-1.72v-4.13h-.82v-1.46h.82v-.95a1.61,1.61,0,0,1,1.73-1.73h1.28V295h-.93a.35.35,0,0,0-.36.4v.86h1.31Z" transform="translate(-305 -289.57)"/></g></svg>