<svg id="Layer_1" data-name="Layer 1" xmlns="http://www.w3.org/2000/svg" xmlns:xlink="http://www.w3.org/1999/xlink" viewBox="0 0 206.26 27.32"><defs><style>.cls-1{fill:none;}.cls-2{clip-path:url(#clip-path);}.cls-3{fill:#272525;}</style><clipPath id="clip-path" transform="translate(-13.4 -6.84)"><rect class="cls-1" x="13.4" y="6.84" width="206.26" height="27.32"/></clipPath></defs><title>GVM_Masthead</title><g class="cls-2"><path class="cls-3" d="M117.28,15.62v3.46H120V15.7l3.43-6.28h-2.9l-1.81,3.79-1.84-3.79h-3.06Zm-11.63,3.46h7.68V16.93h-5V15.28h4.17V13.12h-4.17V11.56h4.86V9.42h-7.55Zm-6.13-2.29V9.42H96.75v9.66h7.41V16.79Zm-8.9,0V9.42H87.85v9.66h7.41V16.79Zm-8.88-4.64,1.06,3.56H80.67Zm2.06,6.93h2.81L83.43,9.42H80.14L77,19.08h2.73l.38-1.3H83.4ZM68,9.42l3.22,9.66h3.19L77.6,9.42H74.83l-2,6.62-2-6.62Zm-8.57,9.66c3.19,0,4.65-1.71,4.65-4.9S62.66,9.42,59.6,9.42H55.24v9.66ZM58,16.87V11.63H59.4c1.24,0,1.87.82,1.87,2.59,0,2-.81,2.65-2.1,2.65Zm-7.37,2.21h2.32V9.42H50.35l.06,5.73L46.08,9.42H44v9.66h2.6l-.07-5.27Zm-12.7-6.93L39,15.71H36.85ZM40,19.08h2.81L39.61,9.42H36.32l-3.18,9.66h2.73l.38-1.3h3.33Zm-11.26-7.4A1,1,0,0,1,29.8,12.8,1,1,0,0,1,28.68,14H26.89V11.68Zm-4.53,7.4h2.7V16.14h1.5l1.2,2.94h3l-1.56-3.46a3.07,3.07,0,0,0,1.49-2.89,3,3,0,0,0-3.26-3.31H24.19Zm-6.45.21A2.9,2.9,0,0,0,20.37,18l.16,1.09H22.4v-5.4H18.27v2.05h1.66a1.53,1.53,0,0,1-1.66,1.35c-1.35,0-2.1-.68-2.1-2.82s.71-2.76,2-2.76a1.57,1.57,0,0,1,1.67,1l2.21-1.13c-.62-1.55-1.9-2.2-3.85-2.2-3.23,0-4.84,1.58-4.84,5s1.67,5,4.34,5" transform="translate(-13.4 -6.84)"/><path class="cls-3" d="M113.77,32h7.69V29.83h-5V28.19h4.18V26h-4.18V24.46h4.86V22.32h-7.55Zm-4.61,0h2.32V22.32h-2.59l0,5.73-4.32-5.73h-2.05V32h2.59l-.06-5.28ZM97.51,32h2.75V22.32H97.51ZM88,32h8V29.76l-4.63.06L95.9,24V22.32H88.16v2.23l4.37-.06L88,30.33Zm-5.6-6.93,1.07,3.56H81.34ZM84.46,32h2.81l-3.18-9.67H80.8L77.62,32h2.73l.39-1.3h3.33ZM72,32.19a2.9,2.9,0,0,0,2.63-1.29L74.75,32h1.86v-5.4H72.48v2h1.66A1.53,1.53,0,0,1,72.48,30c-1.35,0-2.1-.67-2.1-2.81s.71-2.76,2.05-2.76a1.57,1.57,0,0,1,1.66,1l2.21-1.13c-.61-1.54-1.9-2.19-3.85-2.19-3.23,0-4.84,1.57-4.84,5s1.68,5,4.34,5M62.2,25.06l1.07,3.56H61.14ZM64.26,32h2.82L63.9,22.32H60.61L57.43,32h2.73l.38-1.3h3.33Zm-14.8,0h1.91l2.35-5.57L53.59,32h2.58V22.32h-3l-2.69,6.49-2.71-6.49h-3V32h2.48l-.11-5.33Z" transform="translate(-13.4 -6.84)"/><path class="cls-3" d="M199.78,33.53h6.36l5.14-12.62-.38,12.62h8.75V7.47H209.27l-6.18,15.34L196.87,7.47h-10V33.53h8.37l-.37-11.69ZM158.09,7.47l8.67,26.06h10.72l8.71-26.06h-9.45L172.27,23,167.84,7.47ZM146.47,34.16c8,0,12.62-3.27,12.62-11.28V18.34h-11.8v6.81h3.43c-.45,1.12-1.6,1.64-3.32,1.64-3,0-4.69-1.56-4.69-6.21,0-4.29,1.64-6,4.4-6,2,0,2.68.48,3.57,2.27l7.52-3.61c-1.64-4.54-5.32-6.44-11-6.44-9.27,0-13.89,4.5-13.89,13.62s5,13.7,13.14,13.7" transform="translate(-13.4 -6.84)"/></g></svg>