<svg id="Layer_1" data-name="Layer 1" xmlns="http://www.w3.org/2000/svg" viewBox="0 0 16.42 16.43"><defs><style>.cls-1{fill:#fff;}.cls-2{fill:#005d99;}</style></defs><title>linked_301</title><path class="cls-1" d="M9.6,8.43,7.31,9.76a.27.27,0,0,1-.38,0,.29.29,0,0,1-.06-.22V6.85c0-.28.2-.39.44-.25l2.3,1.32a.27.27,0,0,1,.17.34.29.29,0,0,1-.17.17m2.84-1.81a1.2,1.2,0,0,0-1.21-1.19H5.42a1.19,1.19,0,0,0-1.2,1.18h0q-.06.78-.06,1.56t.06,1.56a1.19,1.19,0,0,0,1.19,1.19h0Q6.85,11,8.33,11t2.91-.06a1.2,1.2,0,0,0,1.21-1.19h0c0-.52.05-1,.05-1.56s0-1-.05-1.56" transform="translate(0 -0.03)"/><path class="cls-2" d="M16.42,8.25A8.21,8.21,0,1,1,8.21,0a8.21,8.21,0,0,1,8.21,8.22" transform="translate(0 -0.03)"/><path class="cls-1" d="M12.4,10.92H10.74V8.5c0-.64-.25-1.07-.82-1.07a.85.85,0,0,0-.8.58,1.13,1.13,0,0,0,0,.38v2.53H7.45s0-4.29,0-4.68H9.09V7a1.5,1.5,0,0,1,1.46-.77c1,0,1.85.67,1.85,2.12ZM5.79,5.66h0A.82.82,0,1,1,5.8,4a.82.82,0,1,1,0,1.63m.77,5.26H5.09V6.24H6.56Z" transform="translate(0 -0.03)"/></svg>