<svg id="Layer_1" data-name="Layer 1" xmlns="http://www.w3.org/2000/svg" viewBox="0 0 16.42 16.43"><defs><style>.cls-1{fill:#005d99;}.cls-2{fill:#fff;}</style></defs><title>youtube</title><path class="cls-1" d="M401.42,306.79a8.21,8.21,0,1,1-8.21-8.22,8.21,8.21,0,0,1,8.21,8.22" transform="translate(-385 -298.57)"/><path class="cls-2" d="M394.6,307l-2.29,1.33a.27.27,0,0,1-.44-.25v-2.66c0-.28.2-.39.44-.25l2.3,1.32a.27.27,0,0,1,0,.51m2.84-1.81a1.2,1.2,0,0,0-1.21-1.19c-.9,0-4.92,0-5.82,0a1.19,1.19,0,0,0-1.2,1.19q-.06.78-.06,1.56t.06,1.56a1.19,1.19,0,0,0,1.2,1.19q1.43.06,2.91.06t2.91-.06a1.2,1.2,0,0,0,1.21-1.19c0-.52.05-1,.05-1.56s0-1-.05-1.56" transform="translate(-385 -298.57)"/></svg>