<?xml version="1.0" encoding="utf-8"?>
<!-- Generator: Adobe Illustrator 22.0.1, SVG Export Plug-In . SVG Version: 6.00 Build 0)  -->
<svg version="1.1" id="Layer_1" xmlns="http://www.w3.org/2000/svg" xmlns:xlink="http://www.w3.org/1999/xlink" x="0px" y="0px"
	 viewBox="0 0 16.4 16.4" style="enable-background:new 0 0 16.4 16.4;" xml:space="preserve">
<style type="text/css">
	.st0{fill:#FFFFFF;}
	.st1{fill:#005D99;}
	.st2{clip-path:url(#SVGID_2_);}
</style>
<title>gallery_301</title>
<path class="st0" d="M9.6,8.4L7.3,9.7C7.2,9.8,7,9.8,6.9,9.7c0-0.1-0.1-0.1-0.1-0.2V6.8c0-0.3,0.2-0.4,0.4-0.2l2.3,1.3
	c0.1,0,0.2,0.2,0.2,0.3C9.8,8.3,9.7,8.4,9.6,8.4 M12.4,6.6c0-0.7-0.5-1.2-1.2-1.2c0,0,0,0,0,0H5.4c-0.7,0-1.2,0.5-1.2,1.2
	c0,0,0,0,0,0l0,0c0,0.5-0.1,1-0.1,1.6c0,0.5,0,1,0.1,1.6c0,0.7,0.5,1.2,1.2,1.2h0l0,0c1,0.1,1.9,0.1,2.9,0.1s2,0,2.9-0.1
	c0.7,0,1.2-0.5,1.2-1.2c0,0,0,0,0,0l0,0c0-0.5,0.1-1,0.1-1.6S12.5,7.2,12.4,6.6"/>
<path class="st1" d="M16.4,8.2c0,4.5-3.7,8.2-8.2,8.2S0,12.7,0,8.1C0,3.6,3.7,0,8.2,0C12.7,0,16.4,3.6,16.4,8.2
	C16.4,8.2,16.4,8.2,16.4,8.2"/>
<polygon class="st0" points="4,4.7 4,11.8 10.2,11.8 10.2,10.1 9.4,10.1 9.4,11.1 4.7,11.1 4.7,5.4 9.4,5.4 9.4,6.4 10.2,6.4 
	10.2,4.7 "/>
<g>
	<defs>
		<rect id="SVGID_1_" x="3.8" y="4.6" width="9.4" height="7.1"/>
	</defs>
	<clipPath id="SVGID_2_">
		<use xlink:href="#SVGID_1_"  style="overflow:visible;"/>
	</clipPath>
	<g class="st2">
		<path class="st0" d="M12.2,8L12.2,8L12.2,8 M12,8.2c-0.3,0.5-0.6,1.1-0.8,1.7l0.3,0.1c0.4-0.8,1-1.5,1.9-1.9l0.1-0.2
			c-0.9-0.4-1.6-1.1-2-1.9l-0.2,0.2c0.2,0.5,0.4,1.1,0.7,1.5c-1,0-4.2,0-4.8,0L6.7,8.3C7.4,8.3,11,8.3,12,8.2"/>
	</g>
</g>
</svg>
