<svg id="Layer_1" data-name="Layer 1" xmlns="http://www.w3.org/2000/svg" xmlns:xlink="http://www.w3.org/1999/xlink" viewBox="0 0 16.42 16.43"><defs><style>.cls-1{fill:none;}.cls-2{clip-path:url(#clip-path);}.cls-3{fill:#005d99;}.cls-4{fill:#fff;}</style><clipPath id="clip-path" transform="translate(-385 -298.57)"><rect class="cls-1" x="385" y="298.58" width="16.42" height="16.42"/></clipPath></defs><title>twitter_301</title><g class="cls-2"><path class="cls-3" d="M401.43,306.79a8.22,8.22,0,1,1-8.22-8.22,8.22,8.22,0,0,1,8.22,8.22" transform="translate(-385 -298.57)"/><path class="cls-4" d="M396.62,304.17a1.89,1.89,0,0,0,.79-1.06,3.62,3.62,0,0,1-1.15.47,1.74,1.74,0,0,0-1.32-.61,1.88,1.88,0,0,0-1.82,1.92,2,2,0,0,0,.05.43,5.07,5.07,0,0,1-3.74-2,2.07,2.07,0,0,0-.24,1,2,2,0,0,0,.8,1.6,1.81,1.81,0,0,1-.82-.24v0a1.9,1.9,0,0,0,1.46,1.88,2,2,0,0,1-.48.06,1.87,1.87,0,0,1-.34,0,1.84,1.84,0,0,0,1.69,1.33,3.53,3.53,0,0,1-2.25.82,3,3,0,0,1-.43,0,4.94,4.94,0,0,0,2.78.86,5.28,5.28,0,0,0,5.16-5.44,2,2,0,0,0,0-.25,3.91,3.91,0,0,0,.91-1,3.76,3.76,0,0,1-1,.3" transform="translate(-385 -298.57)"/><path class="cls-4" d="M396.62,304.17a1.89,1.89,0,0,0,.79-1.06,3.62,3.62,0,0,1-1.15.47,1.74,1.74,0,0,0-1.32-.61,1.88,1.88,0,0,0-1.82,1.92,2,2,0,0,0,.05.43,5.07,5.07,0,0,1-3.74-2,2.07,2.07,0,0,0-.24,1,2,2,0,0,0,.8,1.6,1.81,1.81,0,0,1-.82-.24v0a1.9,1.9,0,0,0,1.46,1.88,2,2,0,0,1-.48.06,1.87,1.87,0,0,1-.34,0,1.84,1.84,0,0,0,1.69,1.33,3.53,3.53,0,0,1-2.25.82,3,3,0,0,1-.43,0,4.94,4.94,0,0,0,2.78.86,5.28,5.28,0,0,0,5.16-5.44,2,2,0,0,0,0-.25,3.91,3.91,0,0,0,.91-1,3.76,3.76,0,0,1-1,.3" transform="translate(-385 -298.57)"/></g></svg>