<svg id="Layer_1" data-name="Layer 1" xmlns="http://www.w3.org/2000/svg" viewBox="0 0 17.17 17.08"><defs><style>.cls-1{fill:#a6a8aa;}.cls-2{fill:#fff;}</style></defs><title>GVM Graphics</title><path class="cls-1" d="M16.8,8.54A8.22,8.22,0,1,1,8.58.33,8.21,8.21,0,0,1,16.8,8.54"/><path class="cls-2" d="M12,5.92a1.87,1.87,0,0,0,.79-1,3.51,3.51,0,0,1-1.15.46,1.76,1.76,0,0,0-1.32-.6A1.87,1.87,0,0,0,8.49,6.64a2,2,0,0,0,0,.43,5.09,5.09,0,0,1-3.74-2,2,2,0,0,0-.24,1,2,2,0,0,0,.8,1.59,1.81,1.81,0,0,1-.82-.24v0A1.9,1.9,0,0,0,6,9.29a1.85,1.85,0,0,1-.48.07,1.27,1.27,0,0,1-.34,0,1.82,1.82,0,0,0,1.69,1.33,3.53,3.53,0,0,1-2.25.82,3,3,0,0,1-.43,0A4.87,4.87,0,0,0,7,12.3a5.28,5.28,0,0,0,5.16-5.44,2.09,2.09,0,0,0,0-.25,3.59,3.59,0,0,0,.91-1,3.45,3.45,0,0,1-1,.3"/></svg>